<svg xmlns="http://www.w3.org/2000/svg" xmlns:xlink="http://www.w3.org/1999/xlink" xml:space="preserve" version="1.1" style="shape-rendering:geometricPrecision; text-rendering:geometricPrecision; image-rendering:optimizeQuality; fill-rule:evenodd; clip-rule:evenodd" viewBox="4816.7 3590.9 10466.92 6659.74">
 <defs>
  <style type="text/css">
   <![CDATA[
    .fil0 {fill:#1A1750}
    .fil2 {fill:#209DD8}
    .fil1 {fill:#F78F1F;fill-rule:nonzero}
   ]]>
  </style>
 </defs>
 <g id="Layer_x0020_1">
  <metadata id="CorelCorpID_0Corel-Layer"/>
  <path class="fil0" d="M8496.6 4788.46l41.08 136.88 1.44 -0.43 0 8.86c-43.87,-9.15 -41.2,-8.58 -87.15,-18.16l-0.08 -32.05 44.71 -95.1zm2207.54 1015.88l48.12 -431.03c-19.42,1.15 -38.96,3.38 -58.6,6.8l5.17 1.67 -135.22 422.56 140.53 0zm71.07 -431.88l-48.2 431.88 115.79 0 -20.38 -430.56c-15.62,-1.12 -31.35,-1.56 -47.21,-1.32zm-235.42 431.88l134.56 -420.5c-30.36,6.46 -59.84,15.23 -88.43,25.95l14.19 7.8 -213.62 386.75 153.3 0zm-179.27 0l215.93 -390.93c-196.91,77.33 -350.67,246.69 -452.7,390.93l236.77 0zm887.11 0l-207.03 -374.78c-21.77,-9.41 -44,-17.91 -66.64,-25.31l145.31 400.09 128.36 0zm-172.23 -358.81l198.18 358.81 234.23 -3.58c-15.69,-19.25 -191.2,-238 -432.41,-355.23zm19.71 358.81l-148.35 -408.44c-15.75,-4.47 -31.7,-8.32 -47.78,-11.58l89.87 420.02 106.26 0zm-129.49 0l-90.82 -424.47c-9.8,-1.59 -19.66,-2.93 -29.53,-4.02l20.27 428.49 100.08 0zm-955.96 119.37c-11.02,-16.34 -23.03,-33.78 -35.94,-52.1l67.75 0.2c-11.5,18.25 -22.12,35.63 -31.81,51.9zm-1211.88 -119.37c79.54,-118.3 186.91,-250.35 307.78,-324.66l-179.36 324.66 -128.42 0zm154.41 0l190.91 -345.63c21.75,-10.9 43.85,-19.79 66.27,-26.24l-118.98 371.87 -138.2 0zm162.02 0l121 -378.17c16.03,-3.22 32.21,-5.2 48.45,-5.74l-42.85 383.91 -126.6 0zm149.46 0l42.84 -383.71 3.7 0.22c13.16,0.88 26.29,2.67 39.39,5.14l17.9 378.35 -103.83 0zm126.56 0l-17.65 -373.24c9.85,2.54 19.65,5.5 29.42,8.86l77.96 364.38 -89.73 0zm112.98 0l-75.9 -354.77c17.15,7.1 34.18,15.38 51.02,24.63l119.93 330.14 -95.05 0zm119.19 0l-113.35 -312.12c32.61,20.42 64.44,44.36 95.18,70.57l133.41 241.55 -115.24 0zm141.22 0l-107.02 -193.75c62.85,61 119.84,129.42 168.05,193.75l-61.03 0zm807.52 -521.53l44.29 0 0 -1014.21 -44.29 0 0 1014.21zm-132.22 -986.4l93.9 -11.69 0 -76.84 104.74 -276.39 0 -334.74 -19.2 0 0 334.74 -0.09 0 0 -340.59 -1.61 0 0 341.55 -275.51 330.29 0 51.12 -45.94 0 0 888.82 -72.67 0 0 306.31 -104.62 0 0 -189.81 -122.67 0 0 -472.86 -28.79 0 0 -62.35 -116.51 0 0 -99.36 -208.22 0 0 67.61 -36.54 36.55 -63.48 0 0 51.55 -19.58 5.24 0 420.85 -71.74 0 0 -45.23 -42.48 0 0 -57.47 -100.05 1.37 0 -251.62 -38.59 -24.18 0 275.51c-115.76,2.2 -231.5,4.33 -347.24,6.5l0 -30.77 310.37 0c0,-375.37 -0.24,-750.75 0,-1126.12 -67.52,-59.12 -134.96,-118.3 -202.4,-177.44l0 -28.86 18.35 0 0 -7.69 -18.35 0 0 -143.76 -10.26 0 0 143.76 -19.69 0 0 7.69 19.69 0 0 25.4c-63.57,65.44 -127.17,130.88 -190.7,196.35l-0.98 342.41 -88.23 163.17 -0.76 1.44 15.27 0c5.59,-10.85 11.22,-21.67 16.86,-32.53l16.58 -13.99 -1.56 49.21 11.77 -0.7 1.11 -58.07 28.73 -24.23 -0.18 63.56c0,7.08 2,17.92 3.04,25.87l-72.58 4.43 10.25 683.1 -42.59 0 0 39.74 -102.79 0 0 64.42 -68.26 0c-6.17,61.13 -5.54,108.52 -50.56,-41.48l-17.01 -6.59 -34.37 -7.17 0.17 79.74 -18.21 0 -0.17 -81.89 -291.36 16.76 0.15 65.13 -18.22 0 -2.74 -1263.42 18.21 0 0.3 136.04 287.03 -16.51 4.3 -9.15 -0.25 -110.38 18.2 0 0.17 71.84 50.35 -107.12 36.8 122.58 -0.19 -87.3 5.56 0 0 -82.71 -7.28 0 0 -13.17 -100.49 -375.09 -10.49 10.86c-96.01,5.16 -192.04,10.35 -288.04,15.41l-13.21 -8.06 0 320.69 -73 -265.85 -0.04 -0.04 -7.36 -27.43 -9.17 15.87 -277.28 0 -14.23 -4.72 0 1903.62 -98.45 0 0 -47.97 -28.11 0 0 -41.8 -84.63 0 0 -180.12 -49.27 -13.21 0 -54.71 -28.53 -7.65 0 -30.07 -211.28 0 0 37 -80.71 0 0 56.58 -57.06 15.3 0 482.85 1644.68 0c133.71,-205.01 345.79,-464.28 564.12,-466.01 218.9,-1.72 457.63,259.65 611.87,466.01l160.83 0c148.33,-217.46 397.38,-499.5 691.43,-499.5 437.36,0 771.2,427.85 823.45,499.5l1136.86 -0.78 0 -0.39 222.55 0 0 0.24 34.17 -0.02 0 73.98 -2915.9 -5.45c-19.01,29.76 -35.37,57.31 -48.97,81.36 0.83,1.28 4.69,10.52 10.98,26.27 252.07,5.17 528.13,43.41 745.66,175.68l0 -176.31 1958.68 0 1134.09 0 0 858.76 142.3 0 0 -858.76 1134.09 0 0 1233.11 128.48 -0.2 0 -1846.69 -87.91 5.25 -15.63 -28.43 -65.94 -8.94 0 47.69 -46.6 -10.97 0 268.83 -226.16 2.74 0 303.74 -54.62 4.11 0 -369.01 -16.57 -1.9 -8.09 -51.2 -97.83 0.76 0 -322.24 -19.17 0 0 346.61 2.64 0 0 33.05 -144.45 2.58 39.74 -49.94 -52.14 2.02 9.67 -112.96 -21.88 -15.14 0 -233.42 -15.32 -28.37 -40.87 -7.43 0 -22.51 -32.33 2.19 0 -146.7 -19.2 0 0 147.99 -1.46 0.1 0 55.06 -162.34 6.19 -1.44 20.56 47.08 -2.68 0 316.87 -47.79 -1.81 6.08 37.85 -11.39 1.94 0 42.45 -85.03 0.63 -3.68 -21.55 -15.51 1.15 0.5 26.05 41.67 -3.26 0 270.63 -85.43 5.21 0 -1298.96 -77.6 -58.49 -204.5 -1.34 -34.46 30.33 -146.26 -7.91 0 1180.01 -36.9 7.16 -7.4 -26.59 -7.69 -0.54 -29.92 42.15 -48.21 0 -17.32 -17.32 -69.81 89.34 -38.91 -56.03 -98.75 -9.36 -48.93 -22.23 -37.61 -55.66 19.01 -149.29 -39.06 -33.15 -127.65 -4.29 0 -209.59 -130.55 -2.74 0 -640.88 -22.36 -48.67 -4 -1.04 6.67 50.8 -36.11 3.54c-13.56,-23.21 -27.14,-46.41 -40.67,-69.64l-7.02 -34.52 -4.02 -0.93 0 35.48 -36.81 7.03 -10.14 -30.09 0 37.98 -38.48 -2.61 0 -23.87 -8.8 0.24 0 22.14 -76.59 -2.7 4.78 54.49 -82.06 0 22.51 -60.03 0 -21.03 -2.67 -0.17 -29.18 62.96 -30.38 991.37 -46.67 0c-0.3,-238.84 -0.58,-477.68 -0.73,-716.52l29.42 -24.64 0 -45.89 -55.5 -17.03 0 -77.92 -34.28 2.41 0 -75.28 -17.82 -6.17 0 -58.14 -65.85 -3.61 11.25 -32.13 -74.93 -48.84 0 -20.4 -21.47 -1.46 0 18.66 -36.87 2.29 -11.23 -25.95 -3.3 -0.13 0 25.99 -117.98 -3.91 -60.4 84.64 -45.39 1.89 0 81.92 -34.61 -3.76 0 981.66 -39.91 -15.19 -35.48 -2.1 0 50.33 -26.6 -4.1 -25.42 5.99 -23.37 -15.57 -50.48 104.61 0 -1141.25 -102.81 -3.41 0 -70.95 -177.4 0 -31.83 14.51 0 68.83 -121.84 13.01 8.91 385.03 -170.58 6.16 0 -42.8 -63.75 0 23.55 -31.89 -348.04 -6.34 0.33 5.6 47.1 4.17 0 78.41 -41.11 -2.73 0 240.99 -49.55 -2.19 0 -1063.27 0 -216.12 -4.68 8.87 -1.78 -79.07 -109.94 276.39 0 1014.23 -10.51 0 0 -544.52 -3.93 579.22 -83.17 0 -6.8 -960.4zm-3334.67 1570.53l0 26.07 -81.34 -81.34 0 -522.3 -412.11 0 0 636.62 -67.6 0 0 -812.75 -137.75 0 0 -56.88 -129.73 0 0 74.02 -117.67 0 0 -27.81 -31.76 -1.31 0 693.83 -49.8 0 0 -765.61 -83.95 -1.02 0 -20.3 -36.48 0.57 -31.6 -21.64 0 23.22 -82.69 0.88 0 -33.23 -73.72 13.47 -24.53 -34.35 -155.78 4 32.44 24.01 0 39.67 -47.26 4.11 0 694.5 -65.22 -1.91 0 -1200.32 -188.13 0 0 -35.98 -31.18 0 0 -25.12 -15.3 -6.73 0 2.73 -20.57 0 0 60.31 -194.48 0 -57.7 57.69 0 974.34 -183.64 0 0 1634.03 128.47 0 0 -1203.49 1064.07 0c315.39,0 660.35,53.32 908.4,264.24 6.3,5.35 12.48,10.76 18.58,16.25l0 -280.49 1730.93 0c21.54,-62.09 36.62,-102.83 41.79,-111.28l-1604.69 -0.7zm2819.72 111.98c-27.16,-60.4 -45.65,-99.73 -51.12,-107.63l-1116.03 -3.5c-5.19,8.38 -18.94,49.08 -38.3,111.13l1205.45 0zm515.77 -1712.1l-1 1.79 -0.02 -1.79 1.02 0zm-1899.79 1041.87l-2.61 -8.63 -13.84 -2.89 16.55 55.08 -0.1 -43.56zm-4.35 -27.62l0 -1.62 4.28 0 -0.07 -33.29 -32.91 -109.65 -54.19 115.3 0.02 12.01 42.39 8.83 12.84 -27.31 9.59 31.96 18.05 3.77zm-49.21 -513.68l-34.59 73.57 -0.17 -80.81 34.76 7.24zm-52.97 -9.09c0.11,52 0.22,104.43 0.34,155.74l-291.33 16.76 -0.35 -155.74 291.34 -16.76zm-290.97 190.77l291.36 -16.78c0.11,52.93 0.2,112.49 0.33,155.74l-291.34 16.77 -0.35 -155.73zm309.15 -207.54l-0.06 -22.96 45.39 -96.53 41.06 136.87 0.76 -0.23 0 0.99c-43.35,-9.05 -41.37,-8.62 -87.15,-18.14zm38.35 -147.43l-38.5 81.88 -0.19 -89.92 38.69 8.04zm-38.74 -26.67l-0.08 -38.5 45.8 -97.4 41.06 136.86 0.35 -0.11 0.04 17.28c-35.76,-7.44 -49.43,-10.28 -87.17,-18.13zm31.68 -148.82l-31.85 67.74 -0.17 -74.39 32.02 6.65zm-32.05 -25.29l-0.04 -22.25 46.13 -98.16 41.06 136.85 0 1.72c-48.84,-10.17 -35.15,-7.34 -87.15,-18.16zm38.65 -147.35l-38.78 82.51 -0.21 -90.62 38.99 8.11zm-39.02 -26.75l-0.02 -6.04 46.48 -98.86 36.67 122.21c-34.24,-7.12 -45.17,-9.4 -83.13,-17.31zm60.54 727.31l28.17 5.86 0.18 88.6 -28.35 -94.46zm-14.41 15.46l41.08 136.86 1.81 -0.54 0.02 9.54c-38.17,-7.93 -38.17,-7.93 -87.15,-18.14l-0.08 -33.44 44.32 -94.28zm25.23 160.81l17.72 3.69 0.11 55.71 -17.83 -59.4zm-69.44 -14.45l43.39 9.03 -43.16 91.84 -0.23 -100.87zm-0.39 -174.1l34.17 7.11 -33.98 72.34 -0.19 -79.45zm-17.82 172.03l0.33 155.76 -291.34 16.76 -0.33 -155.74 291.34 -16.78zm104.81 -240.06l-28.14 -93.73 27.96 5.8 0.18 87.93zm-0.37 -168.73l-29.85 -99.46 29.65 6.15 0.2 93.31zm-105.24 42.56l-291.34 16.76 -0.33 -155.74 291.34 -16.77c0.11,51.81 0.2,104.63 0.33,155.75zm104.83 -234.47l-24.16 -80.46 24 4.98 0.16 75.48zm-105.2 60.46l-291.34 16.76 -0.33 -155.72 291.34 -16.77c0.11,54.64 0.22,108.33 0.33,155.73zm104.85 -220.22l-28.74 -95.77 28.54 5.95 0.2 89.82zm-105.24 39.28l0.02 6.94 -291.36 16.77 -0.33 -155.74 291.36 -16.77 0.28 130.73 0.03 18.07zm-1965.03 790.73l0 622.24 51.04 0 0 -622.24 -51.04 0zm-267.97 622.24l0 -622.24 -51.04 0 0 622.24 51.04 0zm79.77 0l0 -622.24 -51.05 0 0 622.24 51.05 0zm79.74 0l0 -622.24 -51.05 0 0 622.24 51.05 0zm79.76 0l0 -622.24 -51.05 0 0 622.24 51.05 0zm2389.11 -1402.82l-0.15 49.8c-7.46,5.73 -18.25,14.95 -28.53,23.99l0.37 -19.45 28.31 -54.34zm386.11 -232.85l-278.8 0 -88.5 22.95 0.09 -37.44c122.41,-5.52 244.82,-11.12 367.21,-16.69l0 31.18zm-367.36 35.55l88.56 -24.58 278.8 0 0 32.2 -278.8 0 -88.65 22.99 0.09 -30.61zm-58.62 281.01l0.26 -7.67 -7.28 13.98c2.15,-1.92 4.52,-4.07 7.02,-6.31zm152.17 612.87l273.81 0 0 -34.45 -273.81 0 0 34.45zm273.81 14.73l-273.81 0 0 15.69 273.81 0 0 -15.69zm-273.81 -63.91l273.81 0 0 -34.44 -273.81 0 0 34.44zm0 -49.17l273.81 0 0 -34.42 -273.81 0 0 34.42zm0 -49.17l273.81 0 0 -34.42 -273.81 0 0 34.42zm0 -49.17l273.81 0 0 -34.43 -273.81 0 0 34.43zm0 -49.15l273.81 0 0 -34.45 -273.81 0 0 34.45zm0 -49.19l273.81 0 0 -34.43 -273.81 0 0 34.43zm0 -49.16l273.81 0 0 -34.44 -273.81 0 0 34.44zm0 -49.17l273.81 0 0 -34.44 -273.81 0 0 34.44zm0 -49.17l273.81 0 0 -34.44 -273.81 0 0 34.44zm0 -49.17l273.81 0 0 -34.43 -273.81 0 0 34.43zm0 -49.18l273.81 0 0 -32.2 -273.81 0 0 32.2zm273.81 -43.16l-273.81 0 0 -1.84 -93.72 19.47 -0.72 -6.05 0.04 -18.96 89.41 -24.83 278.8 0 0 32.21zm0 -43.17l-278.8 0 -89.38 23.17 0.1 -30.58 89.28 -24.81 278.8 0 0 32.22zm0 -43.17l-278.8 0 -89.25 23.14 0.1 -30.59 89.15 -24.77 278.8 0 0 32.22zm0 -43.17l-278.8 0 -89.13 23.08 0.09 -30.57 89.04 -24.73 278.8 0 0 32.22zm0 -43.19l-278.8 0 -89 23.07 0.09 -30.57 88.91 -24.7 278.8 0 0 32.2zm0 -43.17l-278.8 0 -88.87 23.03 0.07 -30.59 88.8 -24.64 278.8 0 0 32.2zm0 -43.17l-278.8 0 -88.76 23 0.09 -30.59 88.67 -24.63 278.8 0 0 32.22zm-292.08 280.18l-59.25 15.1 -22.89 1.38 82.14 -17.04 0 0.56zm-64.52 -502.25l77.82 0 -1.59 -28.7 30.05 -12.3 -10.71 -57.4 -95.57 98.4zm257.07 0l99.53 0 0 -4.09 -91.56 -80.28 -11.32 79.37 3.35 5zm99.53 17.18l-87.95 0 6.26 9.28 0 24.66 81.69 0 0 -33.94zm-293.12 0l-73.8 0 -0.12 43.8 73.92 -43.8zm88.76 -173.92c10.71,0.58 21.46,1.13 32.17,1.69l-18.25 -16.01 -13.92 14.32zm4024.14 1990.96l59.81 3.45 0 30.49 -59.81 -3.46 0 -30.48zm-1.87 -36.2l59.79 3.46 0 30.5 -59.79 -3.47 0 -30.49zm-1.89 -36.19l59.81 3.47 0 30.49 -59.81 -3.46 0 -30.5zm-1.87 -36.18l59.79 3.44 0 30.52 -59.79 -3.47 0 -30.49zm-1.89 -36.2l59.81 3.48 0 30.48 -59.81 -3.45 0 -30.51zm-1.87 -36.17l59.79 3.45 0 30.49 -59.79 -3.44 0 -30.5zm-1.89 -36.2l59.79 3.46 0 30.5 -59.79 -3.45 0 -30.51zm-1.89 -36.19l59.81 3.47 0 30.49 -59.81 -3.46 0 -30.5zm-1.87 -36.18l59.79 3.45 0 30.51 -59.79 -3.46 0 -30.5zm-281.36 189.94l255.35 0 0 30.5 -255.35 0 0 -30.5zm0 -41.81l255.35 0 0 30.47 -255.35 0 0 -30.47zm0 -41.86l255.35 0 0 30.52 -255.35 0 0 -30.52zm0 -41.81l255.35 0 0 30.49 -255.35 0 0 -30.49zm0 -41.84l255.35 0 0 30.5 -255.35 0 0 -30.5zm279.47 -58.8l59.79 3.44 0 30.5 -59.79 -3.45 0 -30.49zm-1.89 -36.19l59.81 3.45 0 30.49 -59.81 -3.44 0 -30.5zm-277.58 53.16l255.35 0 0 30.49 -255.35 0 0 -30.49zm0 -41.84l222.55 0 0 30.5 -222.55 0 0 -30.5zm0 -41.83l222.55 0 0 30.51 -222.55 0 0 -30.51zm0 -41.82l222.55 0 0 30.48 -222.55 0 0 -30.48zm0 -41.83l222.55 0 0 30.49 -222.55 0 0 -30.49zm0 -41.84l222.55 0 0 30.5 -222.55 0 0 -30.5zm-206.26 134.9l183.34 0 0 30.5 -183.34 0 0 -30.5zm0 -38.91l183.34 0 0 30.5 -183.34 0 0 -30.5zm0 -38.91l183.34 0 0 30.5 -183.34 0 0 -30.5zm0 -38.9l183.34 0 0 30.49 -183.34 0 0 -30.49zm0 -38.91l183.34 0 0 30.49 -183.34 0 0 -30.49zm0 -38.91l222.55 0 0 30.5 -222.55 0 0 -30.5zm0 -38.91l222.55 0 0 30.52 -222.55 0 0 -30.52zm0 -38.9l222.55 0 0 30.49 -222.55 0 0 -30.49zm0 -38.89l222.55 0 0 30.49 -222.55 0 0 -30.49zm0 -38.93l222.55 0 0 30.52 -222.55 0 0 -30.52zm0 -38.89l222.55 0 0 30.5 -222.55 0 0 -30.5zm0 -38.91l222.55 0 0 30.5 -222.55 0 0 -30.5zm0 -38.9l222.55 0 0 30.49 -222.55 0 0 -30.49zm0 -38.89l222.55 0 0 30.49 -222.55 0 0 -30.49zm0 -38.91l222.55 0 0 30.5 -222.55 0 0 -30.5zm0 -38.91l222.55 0 0 30.5 -222.55 0 0 -30.5zm0 -38.91l222.55 0 0 30.5 -222.55 0 0 -30.5zm0 -38.9l222.55 0 0 30.49 -222.55 0 0 -30.49zm0 -38.91l222.55 0 0 30.5 -222.55 0 0 -30.5zm0 -38.91l222.55 0 0 30.5 -222.55 0 0 -30.5zm271.89 481.59l59.78 3.46 0 30.48 -59.78 -3.45 0 -30.49zm0 -37.19l59.78 3.47 0 30.49 -59.78 -3.46 0 -30.5zm0 -37.17l59.78 3.45 0 30.52 -59.78 -3.47 0 -30.5zm0 -37.18l59.78 3.46 0 30.5 -59.78 -3.46 0 -30.5zm0 -37.17l59.78 3.45 0 30.5 -59.78 -3.45 0 -30.5zm0 -37.18l59.78 3.46 0 30.5 -59.78 -3.46 0 -30.5zm0 -37.19l59.78 3.47 0 30.5 -59.78 -3.45 0 -30.52zm0 -37.16l59.78 3.44 0 30.5 -59.78 -3.45 0 -30.49zm0 -37.19l59.78 3.47 0 30.49 -59.78 -3.46 0 -30.5zm0 -37.18l59.78 3.46 0 30.5 -59.78 -3.45 0 -30.51zm0 -37.17l59.78 3.45 0 30.51 -59.78 -3.46 0 -30.5zm0 -37.18l59.78 3.46 0 30.5 -59.78 -3.46 0 -30.5zm0 -37.17l59.78 3.45 0 30.5 -59.78 -3.45 0 -30.5zm0 -37.18l59.78 3.46 0 30.5 -59.78 -3.47 0 -30.49zm0 -37.19l59.78 3.47 0 30.51 -59.78 -3.48 0 -30.5zm-271.89 0l222.55 0 0 30.5 -222.55 0 0 -30.5zm-1264.02 144.48l19.83 0 4.98 30.5 -19.81 0 -5 -30.5zm24.81 -2.41l19.82 0 4.99 30.5 -19.81 0 -5 -30.5zm24.81 -2.39l19.82 0 5 30.5 -19.82 0 -5 -30.5zm24.82 -3.59l19.83 0 4.98 30.49 -19.82 0 -4.99 -30.49zm26.55 -2.58l19.83 0 4.98 30.5 -19.82 0 -4.99 -30.5zm-100.99 -34.96l19.83 0 4.98 30.52 -19.81 0 -5 -30.52zm24.81 -2.39l19.82 0 4.99 30.5 -19.81 0 -5 -30.5zm24.81 -2.39l19.82 0 5 30.5 -19.82 0 -5 -30.5zm24.82 -3.59l19.83 0 4.98 30.49 -19.82 0 -4.99 -30.49zm26.55 -2.58l19.83 0 4.98 30.5 -19.82 0 -4.99 -30.5zm-104.58 -34.96l19.82 0 4.98 30.52 -19.82 0 -4.98 -30.52zm24.8 -2.39l19.83 0 4.98 30.5 -19.8 0 -5.01 -30.5zm24.81 -2.39l19.83 0 5 30.5 -19.82 0 -5.01 -30.5zm24.83 -3.61l19.82 0 4.99 30.51 -19.83 0 -4.98 -30.51zm26.55 -2.56l19.82 0 4.99 30.5 -19.83 0 -4.98 -30.5zm-100.99 -34.96l19.82 0 4.98 30.5 -19.82 0 -4.98 -30.5zm24.8 -2.39l19.83 0 4.98 30.5 -19.8 0 -5.01 -30.5zm24.81 -2.41l19.83 0 5 30.5 -19.82 0 -5.01 -30.5zm24.83 -3.59l19.82 0 4.99 30.49 -19.83 0 -4.98 -30.49zm26.55 -2.58l19.82 0 4.99 30.52 -19.83 0 -4.98 -30.52zm-95.66 -34.92l19.83 0 4.98 30.47 -19.81 0 -5 -30.47zm24.81 -2.41l19.84 0 4.99 30.49 -19.83 0 -5 -30.49zm24.83 -2.41l19.8 0 5.01 30.51 -19.83 0 -4.98 -30.51zm24.81 -3.59l19.82 0 4.98 30.49 -19.82 0 -4.98 -30.49zm26.55 -2.58l19.82 0 5 30.5 -19.82 0 -5 -30.5zm270.76 183.66l29.12 0 0 30.5 -29.12 0 0 -30.5zm0 -45.91l29.12 0 0 30.5 -29.12 0 0 -30.5zm0 -45.91l29.12 0 0 30.5 -29.12 0 0 -30.5zm0 -45.93l29.12 0 0 30.52 -29.12 0 0 -30.52zm-34.11 137.75l29.12 0 0 30.5 -29.12 0 0 -30.5zm0 -45.91l29.12 0 0 30.5 -29.12 0 0 -30.5zm0 -45.91l29.12 0 0 30.5 -29.12 0 0 -30.5zm0 -45.93l29.12 0 0 30.52 -29.12 0 0 -30.52zm-34.09 137.75l29.12 0 0 30.5 -29.12 0 0 -30.5zm0 -45.91l29.12 0 0 30.5 -29.12 0 0 -30.5zm0 -45.91l29.12 0 0 30.5 -29.12 0 0 -30.5zm0 -45.93l29.12 0 0 30.52 -29.12 0 0 -30.52zm-34.09 137.75l29.12 0 0 30.5 -29.12 0 0 -30.5zm0 -45.91l29.12 0 0 30.5 -29.12 0 0 -30.5zm0 -45.91l29.12 0 0 30.5 -29.12 0 0 -30.5zm0 -45.93l29.12 0 0 30.52 -29.12 0 0 -30.52zm-34.09 137.75l29.12 0 0 30.5 -29.12 0 0 -30.5zm0 -45.91l29.12 0 0 30.5 -29.12 0 0 -30.5zm0 -45.91l29.12 0 0 30.5 -29.12 0 0 -30.5zm0 -45.93l29.12 0 0 30.52 -29.12 0 0 -30.52zm-34.1 137.75l29.13 0 0 30.5 -29.13 0 0 -30.5zm0 -45.91l29.13 0 0 30.5 -29.13 0 0 -30.5zm0 -45.91l29.13 0 0 30.5 -29.13 0 0 -30.5zm0 -45.93l29.13 0 0 30.52 -29.13 0 0 -30.52zm-34.09 137.75l29.13 0 0 30.5 -29.13 0 0 -30.5zm0 -45.91l29.13 0 0 30.5 -29.13 0 0 -30.5zm0 -45.91l29.13 0 0 30.5 -29.13 0 0 -30.5zm0 -45.93l29.13 0 0 30.52 -29.13 0 0 -30.52zm-34.09 137.75l29.13 0 0 30.5 -29.13 0 0 -30.5zm0 -45.91l29.13 0 0 30.5 -29.13 0 0 -30.5zm0 -45.91l29.13 0 0 30.5 -29.13 0 0 -30.5zm0 -45.93l29.13 0 0 30.52 -29.13 0 0 -30.52zm238.66 -45.91l29.12 0 0 30.5 -29.12 0 0 -30.5zm-34.11 0l29.12 0 0 30.5 -29.12 0 0 -30.5zm-34.09 0l29.12 0 0 30.5 -29.12 0 0 -30.5zm-34.09 0l29.12 0 0 30.5 -29.12 0 0 -30.5zm-34.09 0l29.12 0 0 30.5 -29.12 0 0 -30.5zm-34.1 0l29.13 0 0 30.5 -29.13 0 0 -30.5zm-34.09 0l29.13 0 0 30.5 -29.13 0 0 -30.5zm-34.09 0l29.13 0 0 30.5 -29.13 0 0 -30.5z"/>
  <path class="fil1" d="M6009.24 6316.56c315.67,0 545.56,61.27 689.66,183.81 144.11,122.54 216.16,310.76 216.16,564.66 0,253.92 -74,439.7 -222.03,557.33 -148.04,117.65 -374,176.45 -677.9,176.45l-273.52 0 0 1653.28 -458.8 0 0 -3135.53 726.43 0zm41.18 1085.23c152.93,0 256.85,-30.89 311.75,-92.64 54.89,-61.77 82.33,-151.96 82.33,-270.57 0,-118.63 -35.77,-202.93 -107.33,-252.94 -71.57,-49.99 -182.84,-74.98 -333.81,-74.98l-261.75 0 0 691.13 308.81 0zm2705.71 -1085.23l0 408.79 -1023.47 0 0 423.5 920.53 0 0 391.15 -920.53 0 0 426.45 1055.82 0 0 405.86 -1514.62 0 0 -2055.75 1482.27 0zm2108.68 682.31c0,329.38 -130.37,542.12 -391.15,638.2l520.57 735.24 -564.68 0 -455.85 -655.83 -317.63 0 0 655.83 -458.8 0 0 -2055.75 779.38 0c319.58,0 547.5,53.92 683.77,161.75 136.27,107.85 204.39,281.36 204.39,520.56zm-873.47 320.56c156.85,0 263.72,-25.49 320.58,-76.46 56.86,-50.97 85.28,-131.86 85.28,-242.63 0,-110.78 -29.4,-186.76 -88.23,-227.93 -58.82,-41.17 -161.76,-61.75 -308.79,-61.75l-344.11 0 0 608.77 335.27 0zm2173.4 -605.84l0 1658.72 -458.8 0 0 -1658.72 -582.32 0 0 -397.03 1623.41 0 0 397.03 -582.29 0zm2193.96 -397.03l458.79 0 0 2055.75 -458.79 0 0 -808.78 -817.6 0 0 808.78 -458.79 0 0 -2055.75 458.79 0 0 858.77 817.6 0 0 -858.77z"/>
  <g id="_1558334926176">
   <path class="fil2" d="M9658.98 9201.7l135.88 135.89c305.75,0 611.5,0 917.24,0l-125.16 302.17c-371.9,0 -742.01,0 -1112.13,0l-84.03 202.05 1693.6 0c-65.07,-174 -49.11,-388.81 10.8,-561.65 17.25,-49.75 37.4,-97.96 60.2,-144.61l-863.46 0 125.16 -302.17 940.28 0c47.67,-54.56 99.55,-105.86 155.02,-153.81 19.21,-16.59 38.64,-32.84 58.79,-48.23l-1867.49 0 262.83 514.94 -182.38 -248.53 -125.15 303.95zm3215.61 640.11l1499.32 0 84.03 -202.05 -1010.21 0 336.14 -806.38 1010.21 0 84.04 -202.04 -1732.08 0c2.08,4.4 4.03,8.72 5.82,12.93 0.14,0.28 0.29,0.55 0.43,0.83 2.03,3.96 3.9,7.95 5.71,12.02l2.24 4.91 29.53 79.43 1.36 4.43c5.3,17.23 9.61,34.66 13.92,52.15 5.09,20.63 9.75,41.55 11.69,62.71 4.64,23.39 7.11,49.17 8.4,74.17l133.19 261.42 -131.98 -180.07c-4.11,241.62 -107.65,492.26 -245.18,687.35 -16.37,23.22 -32.83,46.36 -50.04,68.97 -17.55,23.04 -36.48,46.18 -56.54,69.22z"/>
   <path class="fil2" d="M13005.93 8713.06l-1.28 -5.05c-16.14,-38.89 -61.74,-102.65 -85.85,-129.36 -31.86,-35.3 -82.34,-81.32 -126.31,-105.26 -28.28,-15.4 -46.2,-27.53 -78.74,-41.22 -61.3,-25.79 -124.82,-43.45 -197.61,-52.53 -17.5,-2.18 -111.42,-10.67 -123.5,-5.86 -2.19,2 -0.4,-0.31 -2.64,3.28 -3.82,6.11 -38.56,102.86 -41.21,110.37 130.32,-6.02 268.98,32.51 348.09,82.67 67.84,43.03 134.05,101.21 172.27,170.66l16.52 29.31c14.56,24.83 30.01,70.35 38.52,99.61 14.42,49.6 23.1,136.89 19.93,196.13 -6.94,129.66 -46.75,267.82 -124.53,406.54 -68.53,122.21 -164.31,239.21 -255.32,321.35 -45.37,40.95 -100.94,88.17 -152.17,122.32 -36.72,24.48 -37.28,26.21 -80.96,52.26 -145.79,86.93 -305.36,146.73 -470.57,163.65 -103.42,10.58 -213.67,1.94 -299.63,-26.15 -13.27,-4.33 -26.81,-8.73 -39.25,-13.74 -11.85,-4.77 -24.24,-11.59 -36.03,-15.37 -7.75,7.8 -13.86,18.75 -20.51,27.24 -13.1,16.74 -53.31,66.69 -59.53,78.17 12.31,8.29 41.1,18.29 56.59,23.77 157.07,55.5 338.83,60.26 535.09,9.63 104.65,-27 193.56,-63.83 284.41,-108.94 46.44,-23.06 87.75,-48.39 129.36,-74.59 138.6,-87.28 294.69,-228.18 392.43,-356.54 16.15,-21.21 31.15,-42.34 46.56,-64.21 135.42,-192.1 215.36,-416.05 216.01,-607.41 0.07,-22.26 -1.92,-107.53 -8.82,-121.63 0.52,-11.56 -5.43,-35.54 -7.95,-45.73 -3.63,-14.76 -7.17,-29.31 -11.5,-43.41l-25.9 -69.66c-0.84,-1.84 -1.2,-2.83 -2.37,-5.11 -0.1,-0.18 -1.43,-2.58 -1.45,-2.62 -1.6,-2.34 0.35,-0.49 -2.15,-2.57zm-763.88 836.06c8.83,-5.68 20.05,-15.92 28.83,-23.36 75.78,-64.19 130.81,-143.28 162.58,-229.79l-14.86 0.31c-15.09,49.03 -48.4,102.47 -79.39,141.78 -15.79,20.02 -33.37,38.88 -50.26,55.13 -16.67,16.03 -23.82,21.78 -40.67,35.67 -4.5,3.7 -9.63,7.4 -13.82,11.87 3.15,3.09 3.41,6.76 7.59,8.39zm251.98 -556.71c1.07,5.29 11.71,22.64 15.27,29.02 4.84,8.68 8.84,20.62 12.93,30.82 7.37,18.36 14.18,45.36 16.7,69.55 5.49,52.71 0.95,113.05 -21.25,179.52 -35.73,106.98 -108.45,211.11 -201.42,290.91l-36.87 30.36c1.74,3.42 3.46,4.93 6.09,9.25 2.16,3.53 2.93,5.92 6.06,8.84 13.23,-6.14 62.07,-51.48 75.6,-64.41 80.72,-77.09 144.98,-176.42 177.99,-274.97 40.91,-122.19 30.69,-227.13 -16.73,-312.36 -2.83,-5.08 -5.01,-10.02 -9.42,-14.43 -5.91,3.55 -18.29,13.01 -24.95,17.9zm-781.43 312.67l14.79 0c28.68,-83.75 93.26,-172.81 166.9,-230.37 20.98,-16.4 28.42,-23.49 52.93,-38.71 61.62,-38.24 119.87,-64.03 189.01,-75.31 100.11,-16.34 183.9,9.64 231.69,53.25 25.2,22.99 41.2,45.54 53.78,75.71 9.63,23.1 20.77,68.68 16.98,103.59l14.61 -3.92c6.43,-32.86 -8.66,-92.62 -21.61,-118.46 -6.66,-13.3 -9.59,-19.74 -18.69,-31.96 -12.21,-16.4 -16,-22.21 -32.16,-36.33 -84.46,-73.81 -227.54,-84.7 -377.35,-12.2 -26.4,12.78 -50.05,26.4 -73.63,42.79l-42.18 31.24c-79.94,61.98 -142.57,152.28 -175.07,240.68zm-70.99 328.64c-14.04,-19.98 -29.5,-54.32 -35.56,-78.48 -25.83,-102.84 -8.59,-221.77 65.15,-344.03 22.34,-37.04 47.85,-72.23 76.22,-103.85 36.14,-40.27 49.39,-50.42 87.41,-83.92l73.87 -53.54c7.22,-4.76 16.85,-10.31 24.87,-15.05 24.6,-14.55 53.7,-29.15 80.69,-40.52 8.55,-3.6 19.6,-6.74 27.44,-11.17l-0.08 -24.19c-30.01,7.05 -92.41,41.04 -116.72,54.99 -72.08,41.35 -142.05,99.32 -197.11,162.15 -98.42,112.31 -162.18,253.76 -162.15,372.48 0.01,35.07 4.12,73.87 12.92,101.15 6.99,21.67 23.92,68.25 37.98,82.74 4.93,-2.73 21.02,-14.71 25.07,-18.76zm-284.37 -312.4l86.46 -0.21c10.91,-22.87 17.34,-47.56 29.34,-72.12 11.19,-22.89 21.53,-43.71 34.38,-65.92 43.64,-75.37 104.08,-153.69 168.36,-214.63 28.92,-27.42 43.58,-40.53 72.99,-64.77 6.43,-5.3 22.42,-16.2 26.09,-20.78 -2.12,-5.11 -6.23,-10.33 -9.57,-15.01l-31.79 -44.7 -28.31 22.11c-22.8,17.49 -62.91,54.08 -83.76,74.8 -77.98,77.49 -137.39,150.31 -191.53,244.34 -24.53,42.58 -60.17,112.23 -72.66,156.89zm421.77 -432.16c8.39,14.14 25.22,42.47 33.81,48.8 6.25,-4.25 8.84,-6.98 16.04,-12.04 7.23,-5.09 10.8,-7.52 17.43,-11.95 44.15,-29.51 55.37,-37.22 109.21,-64.51 44.88,-22.76 108.19,-47.88 161.07,-59.37 67.13,-14.59 118.9,-21.46 185.14,-17.23 92.71,5.92 135.65,34.45 151.46,36.33l50.7 -66.31c-32.71,-20.64 -124.48,-38.11 -169.82,-41.84 -124.63,-10.27 -263.85,23.5 -393.19,86.5 -26.58,12.94 -144.51,80.69 -161.85,101.62zm-287.75 605.29c0.32,-52.01 10.35,-112.59 32.03,-173.61l-72.57 0.93c-22.3,77.08 -34.54,129.13 -35.29,196.23 -0.76,68.41 13.46,134.09 37.19,185.78 15.65,34.09 20.84,35.37 34.52,59.86 11.3,20.22 52.58,60.66 71.67,75.17 113.21,86.07 257.47,111.01 444.1,71.87 61.95,-12.99 134.42,-41.12 188.55,-67.66 55.09,-27.02 117.99,-64.29 165.52,-102.89 -6.18,-11.16 -25.21,-42.21 -33.66,-48.45 -12.23,8.65 -22.36,16.82 -35.48,25.21 -6.53,4.18 -12.09,8.26 -18.67,12.45 -86.93,55.35 -160.49,88.34 -258.74,112.19 -150.09,36.45 -308.61,9.06 -393.24,-64 -29.02,-25.05 -41.56,-37.77 -63.04,-66.59 -6.17,-8.28 -11.14,-15.9 -15.99,-25.1 -30.78,-58.35 -47.36,-116.15 -46.9,-191.39zm-108.23 333.44c-0.77,-3.94 -15.74,-24.55 -20.33,-34.98 -1.83,-4.14 -4.21,-7.44 -6.24,-11.54 -22.65,-45.77 -41.58,-105.09 -46.56,-162.85 -7.39,-85.64 -0.63,-181.76 36.82,-288.99 54.13,-155.01 146.41,-293.67 270.03,-414.18 38.17,-37.21 76.79,-69.33 113.61,-98.28l-46.33 -69.74c-22.8,16.35 -44.25,34.16 -66.76,53.61 -173.97,150.36 -300.49,329.74 -370.52,531.76 -55.57,160.31 -57.58,334.93 -10.73,456.61 12.71,33.01 33.92,81.54 54.28,108.43l69.33 -51.75c8.18,-6.34 15.39,-10.14 23.4,-18.1zm-40.28 -105c-0.11,8.02 12.82,34.23 15.92,41.9 5.79,14.38 13.32,25.01 20.45,37.96l23.21 35.91c47.9,58.19 91.41,101.02 173.13,137.68 137.01,61.47 304.36,62.65 488.06,7.01 105.39,-31.92 188.45,-77.27 276.7,-133.2 24.48,-15.52 29.28,-20.5 49.57,-35.14 24.19,-17.45 49.46,-36.47 71.85,-56.71 72.64,-65.7 128.23,-120.06 190.84,-208.59 26.42,-37.36 48.77,-73.29 71.1,-114.17 17.08,-31.26 50.77,-102.54 58.25,-133.98l-86.59 1.21c-17.31,43.58 -29.79,76.73 -52.3,119.06 -42.78,80.45 -103.82,161.43 -171.7,228.93 -6.51,6.48 -12.69,12.51 -19.39,18.69l-61.09 53.94c-6.46,5.64 -13.87,10.87 -20.76,16.56 -25.47,21.08 -82.11,58.11 -110.55,74.65 -216.72,126.06 -452.94,159.1 -625.36,80.73 -56.12,-25.51 -110.5,-66.89 -140.83,-107.38 -10.82,-14.44 -33.97,-47.73 -41.32,-62.93l-16.53 -33.96c-2.33,-5.8 -3.72,-12.72 -6.59,-17.79l-43.47 24.34c-7.97,4.55 -37.72,20.72 -42.6,25.28zm1410.2 -923.06c20.01,31.35 18.15,29.97 33.41,59.38 28.3,54.57 46.65,152.31 44.01,220.01 -5.03,128.9 -38.9,258.71 -122.43,397.67 -128.99,214.6 -339.13,397.36 -571.76,488.03 -6.77,2.64 -16.92,5.77 -23.36,9.03l6.31 88.07c17.87,-3 84.89,-34.55 103.37,-43.22 131.8,-61.88 251.52,-148.58 359.38,-251.37 216.31,-206.11 353.15,-488.34 354.41,-723.59 0.45,-84.41 -16.05,-184.79 -50.12,-249.96 -11.6,-22.2 -22.03,-48.65 -36.59,-67.11 -13.49,7.19 -56,41.29 -72.73,54.4 -8.18,6.42 -17.72,11.86 -23.9,18.66z"/>
  </g>
  <polygon class="fil2" points="5992.2,9004.89 9390.79,9004.89 9232.96,9452.09 5992.2,9452.09 "/>
 </g>
</svg>